<svg width="72" height="72" viewBox="0 0 72 72" fill="none" xmlns="http://www.w3.org/2000/svg">
<path d="M52.2747 5.96487C48.5666 2.82675 44.0306 0.827084 39.2126 0.206519C34.3946 -0.414047 29.4999 0.370931 25.1176 2.46698C20.7353 4.56304 17.0521 7.88085 14.5112 12.0211C11.9703 16.1614 10.6801 20.9478 10.7957 25.8042C11.4383 34.3866 15.2959 42.4103 21.5975 48.272C23.4338 50.3604 25.1981 52.5207 25.1981 53.6369V62.2064C25.1981 63.4925 25.4515 64.766 25.9436 65.9542C26.4358 67.1424 27.1572 68.2221 28.0666 69.1315C28.9761 70.0409 30.0557 70.7623 31.2439 71.2545C32.4321 71.7467 33.7057 72 34.9918 72H37.0081C39.6056 72 42.0966 70.9682 43.9333 69.1315C45.77 67.2948 46.8018 64.8038 46.8018 62.2064V53.6369C46.8018 52.5207 48.7101 50.3604 50.4024 48.272C56.8629 42.2729 60.7366 33.996 61.2042 25.1921C61.2016 21.531 60.4014 17.9145 58.8593 14.594C57.3172 11.2735 55.0702 8.32888 52.2747 5.96487ZM37.0081 68.3994H34.9918C33.3493 68.3994 31.7741 67.7469 30.6127 66.5855C29.4512 65.4241 28.7988 63.8489 28.7988 62.2064V57.5976H43.2012V62.2064C43.2012 63.8489 42.5487 65.4241 41.3873 66.5855C40.2259 67.7469 38.6506 68.3994 37.0081 68.3994ZM47.81 45.8956C45.1815 48.8121 43.1292 51.1525 43.1292 53.6369V53.997H28.7988V53.6369C28.7988 51.1525 26.7464 48.8121 24.118 45.8956C18.485 40.6156 15.0194 33.4277 14.3963 25.7322C14.272 20.5383 16.0235 15.4735 19.33 11.466C22.6364 7.4586 27.2764 4.77694 32.3994 3.91252C35.4953 3.3892 38.6682 3.54704 41.6969 4.37504C44.7257 5.20304 47.5375 6.6813 49.9367 8.70688C52.3359 10.7325 54.2646 13.2567 55.5887 16.1037C56.9128 18.9508 57.6004 22.0522 57.6036 25.1921C57.6036 34.9137 51.9867 41.2508 47.882 45.8956H47.81Z" fill="#FFF832"/>
<path d="M70.2058 21.5916H66.6052C66.1278 21.5916 65.6698 21.7812 65.3322 22.1188C64.9946 22.4565 64.8049 22.9144 64.8049 23.3919C64.8049 23.8693 64.9946 24.3272 65.3322 24.6649C65.6698 25.0025 66.1278 25.1922 66.6052 25.1922H70.2058C70.6833 25.1922 71.1412 25.0025 71.4789 24.6649C71.8165 24.3272 72.0061 23.8693 72.0061 23.3919C72.0061 22.9144 71.8165 22.4565 71.4789 22.1188C71.1412 21.7812 70.6833 21.5916 70.2058 21.5916Z" fill="#FFF832"/>
<path d="M7.19511 23.3919C7.19511 22.9144 7.00544 22.4565 6.66781 22.1188C6.33019 21.7812 5.87228 21.5916 5.39481 21.5916H1.7942C1.31673 21.5916 0.858816 21.7812 0.521194 22.1188C0.183571 22.4565 -0.00610352 22.9144 -0.00610352 23.3919C-0.00610352 23.8693 0.183571 24.3272 0.521194 24.6649C0.858816 25.0025 1.31673 25.1922 1.7942 25.1922H5.39481C5.87228 25.1922 6.33019 25.0025 6.66781 24.6649C7.00544 24.3272 7.19511 23.8693 7.19511 23.3919Z" fill="#FFF832"/>
<path d="M6.65497 0.527857C6.32074 0.193628 5.86743 0.00585937 5.39476 0.00585938C4.92209 0.00585938 4.46878 0.193628 4.13455 0.527857C3.80032 0.862086 3.61255 1.3154 3.61255 1.78807C3.61255 2.26074 3.80032 2.71405 4.13455 3.04828L7.73515 6.64889C7.89679 6.82111 8.092 6.95837 8.30875 7.0522C8.5255 7.14604 8.75918 7.19445 8.99537 7.19445C9.23155 7.19445 9.46523 7.14604 9.68198 7.0522C9.89873 6.95837 10.0939 6.82111 10.2556 6.64889C10.4278 6.48726 10.5651 6.29204 10.6589 6.07529C10.7527 5.85854 10.8011 5.62486 10.8011 5.38868C10.8011 5.15249 10.7527 4.91881 10.6589 4.70206C10.5651 4.48531 10.4278 4.2901 10.2556 4.12846L6.65497 0.527857Z" fill="#FFF832"/>
<path d="M63.0045 7.18898C63.2406 7.19186 63.4747 7.14529 63.6918 7.05228C63.9088 6.95926 64.104 6.82185 64.2647 6.64889L67.8653 3.04828C68.1996 2.71405 68.3873 2.26074 68.3873 1.78807C68.3873 1.3154 68.1996 0.862086 67.8653 0.527857C67.5311 0.193628 67.0778 0.00585938 66.6051 0.00585938C66.1324 0.00585937 65.6791 0.193628 65.3449 0.527857L61.7443 4.12846C61.5721 4.2901 61.4348 4.48531 61.341 4.70206C61.2471 4.91881 61.1987 5.15249 61.1987 5.38868C61.1987 5.62486 61.2471 5.85854 61.341 6.07529C61.4348 6.29204 61.5721 6.48726 61.7443 6.64889C61.905 6.82185 62.1002 6.95926 62.3172 7.05228C62.5343 7.14529 62.7684 7.19186 63.0045 7.18898Z" fill="#FFF832"/>
<path d="M64.2648 40.1345C63.9306 39.8003 63.4773 39.6125 63.0046 39.6125C62.5319 39.6125 62.0786 39.8003 61.7444 40.1345C61.4102 40.4688 61.2224 40.9221 61.2224 41.3948C61.2224 41.8674 61.4102 42.3207 61.7444 42.655L65.345 46.2556C65.5066 46.4278 65.7019 46.5651 65.9186 46.6589C66.1354 46.7527 66.369 46.8011 66.6052 46.8011C66.8414 46.8011 67.0751 46.7527 67.2918 46.6589C67.5086 46.5651 67.7038 46.4278 67.8654 46.2556C68.0377 46.0939 68.1749 45.8987 68.2688 45.682C68.3626 45.4652 68.411 45.2316 68.411 44.9954C68.411 44.7592 68.3626 44.5255 68.2688 44.3087C68.1749 44.092 68.0377 43.8968 67.8654 43.7352L64.2648 40.1345Z" fill="#FFF832"/>
<path d="M7.73528 40.1345L4.13467 43.7352C3.96245 43.8968 3.82519 44.092 3.73136 44.3087C3.63752 44.5255 3.58911 44.7592 3.58911 44.9954C3.58911 45.2316 3.63752 45.4652 3.73136 45.682C3.82519 45.8987 3.96245 46.0939 4.13467 46.2556C4.2963 46.4278 4.49152 46.5651 4.70827 46.6589C4.92501 46.7527 5.1587 46.8011 5.39488 46.8011C5.63107 46.8011 5.86475 46.7527 6.0815 46.6589C6.29825 46.5651 6.49346 46.4278 6.6551 46.2556L10.2557 42.655C10.5899 42.3207 10.7777 41.8674 10.7777 41.3948C10.7777 40.9221 10.5899 40.4688 10.2557 40.1345C9.92147 39.8003 9.46816 39.6125 8.99549 39.6125C8.52282 39.6125 8.06951 39.8003 7.73528 40.1345Z" fill="#FFF832"/>
<path d="M40.1408 18.531L29.3389 29.3328C29.0767 29.574 28.8972 29.8918 28.826 30.2409C28.7549 30.59 28.7958 30.9527 28.9429 31.2772C29.0779 31.6059 29.3073 31.8874 29.602 32.086C29.8968 32.2846 30.2437 32.3916 30.5992 32.3934H37.0442L32.9396 36.5341C32.7673 36.6957 32.6301 36.8909 32.5362 37.1077C32.4424 37.3244 32.394 37.5581 32.394 37.7943C32.394 38.0305 32.4424 38.2641 32.5362 38.4809C32.6301 38.6976 32.7673 38.8929 32.9396 39.0545C33.1012 39.2267 33.2964 39.364 33.5131 39.4578C33.7299 39.5516 33.9636 39.6 34.1998 39.6C34.436 39.6 34.6696 39.5516 34.8864 39.4578C35.1031 39.364 35.2983 39.2267 35.46 39.0545L42.6612 31.8533C42.9235 31.6121 43.103 31.2944 43.1741 30.9453C43.2452 30.5961 43.2043 30.2335 43.0573 29.9089C42.9222 29.5802 42.6928 29.2987 42.3981 29.1001C42.1034 28.9015 41.7564 28.7945 41.401 28.7928H34.9559L42.6612 21.0515C42.9954 20.7172 43.1832 20.2639 43.1832 19.7912C43.1832 19.3186 42.9954 18.8653 42.6612 18.531C42.327 18.1968 41.8737 18.009 41.401 18.009C40.9283 18.009 40.475 18.1968 40.1408 18.531Z" fill="#FFF832"/>
</svg>
