<svg width="72" height="72" viewBox="0 0 72 72" fill="none" xmlns="http://www.w3.org/2000/svg">
<path d="M67.0533 17.9997L71.3033 13.7497C71.5591 13.5383 71.7465 13.2559 71.8419 12.938C71.9372 12.6202 71.9362 12.2812 71.839 11.9639C71.6966 11.6143 71.4471 11.3189 71.1262 11.1199C70.8054 10.921 70.4298 10.8289 70.0533 10.8568H61.1246V1.92815C61.1525 1.55168 61.0604 1.17606 60.8615 0.855218C60.6626 0.53438 60.3671 0.284834 60.0175 0.142417C59.6946 0.0018887 59.3363 -0.0357916 58.9912 0.0344987C58.6461 0.104789 58.3311 0.279639 58.0889 0.535277L53.9817 4.92817C48.5597 1.77583 42.3962 0.123994 36.1244 0.142417C28.2047 0.114972 20.4978 2.70507 14.2021 7.50996C7.90635 12.3149 3.37462 19.0653 1.31153 26.7117C-0.751566 34.358 -0.230414 42.4718 2.79395 49.7914C5.81831 57.111 11.1764 63.2262 18.0351 67.1862C24.8938 71.1461 32.8687 72.729 40.7199 71.6886C48.571 70.6482 55.8584 67.0428 61.449 61.4331C67.0395 55.8233 70.6199 48.5236 71.6334 40.6689C72.6469 32.8143 71.0367 24.8448 67.0533 17.9997ZM59.3389 14.4283H65.7318L58.5889 21.5712H50.4103V13.3925L57.5532 6.24961V12.6425C57.5532 13.1161 57.7413 13.5703 58.0762 13.9052C58.4111 14.2401 58.8653 14.4283 59.3389 14.4283ZM57.5532 35.857C57.5659 40.5767 56.0201 45.1685 53.1558 48.9196C50.2915 52.6707 46.2689 55.3713 41.7125 56.6021C37.1561 57.8328 32.3209 57.5249 27.9575 55.7261C23.594 53.9273 19.9465 50.7383 17.5811 46.6541C15.2158 42.57 14.265 37.8192 14.8763 33.1392C15.4876 28.4593 17.6268 24.1121 20.9618 20.7726C24.2969 17.433 28.6412 15.2879 33.3203 14.6703C37.9994 14.0526 42.7514 14.997 46.8388 17.3568V22.6069L44.8388 24.6069C41.9675 22.3805 38.3558 21.3318 34.7386 21.6743C31.1214 22.0167 27.7706 23.7245 25.3681 26.4501C22.9656 29.1757 21.6919 32.7143 21.8062 36.3459C21.9205 39.9774 23.4142 43.429 25.9833 45.9981C28.5525 48.5673 32.004 50.061 35.6356 50.1753C39.2671 50.2896 42.8057 49.0158 45.5314 46.6133C48.257 44.2108 49.9648 40.86 50.3072 37.2428C50.6496 33.6257 49.6009 30.0139 47.3745 27.1426L49.3745 25.1426H54.6246C56.5255 28.3946 57.5357 32.0902 57.5532 35.857ZM46.8388 35.857C46.8388 37.9761 46.2104 40.0476 45.0331 41.8096C43.8558 43.5716 42.1824 44.9448 40.2247 45.7558C38.2669 46.5667 36.1126 46.7789 34.0342 46.3655C31.9558 45.9521 30.0467 44.9316 28.5482 43.4332C27.0498 41.9348 26.0294 40.0257 25.6159 37.9473C25.2025 35.8689 25.4147 33.7146 26.2256 31.7568C27.0366 29.799 28.4099 28.1256 30.1718 26.9483C31.9338 25.771 34.0053 25.1426 36.1244 25.1426C38.3413 25.154 40.5 25.8528 42.3031 27.1426L34.8744 34.607C34.7036 34.7673 34.5674 34.9609 34.4744 35.1759C34.3813 35.3909 34.3333 35.6227 34.3333 35.857C34.3333 36.0913 34.3813 36.3231 34.4744 36.5381C34.5674 36.7531 34.7036 36.9467 34.8744 37.107C35.0347 37.2778 35.2284 37.414 35.4434 37.5071C35.6584 37.6001 35.8902 37.6482 36.1244 37.6482C36.3587 37.6482 36.5905 37.6001 36.8055 37.5071C37.0205 37.414 37.2141 37.2778 37.3744 37.107L44.8388 29.6784C46.1286 31.4814 46.8274 33.6401 46.8388 35.857ZM36.1244 68.0001C31.2308 68.0197 26.3973 66.9217 21.9924 64.7897C17.5875 62.6578 13.7276 59.5482 10.7069 55.698C7.68616 51.8479 5.58446 47.3588 4.56199 42.5731C3.53951 37.7875 3.62327 32.8315 4.80686 28.0831C5.99046 23.3347 8.24264 18.9192 11.3917 15.1733C14.5408 11.4274 18.5036 8.45005 22.978 6.46815C27.4524 4.48624 32.3203 3.55215 37.2105 3.7371C42.1007 3.92204 46.8841 5.22114 51.196 7.53534L47.3745 11.3925C47.203 11.552 47.0667 11.7456 46.9744 11.9608C46.8821 12.1761 46.836 12.4083 46.8388 12.6425V13.2854C41.5159 10.7573 35.471 10.1908 29.771 11.6857C24.071 13.1807 19.0822 16.6411 15.6852 21.4562C12.2882 26.2714 10.7013 32.1317 11.2045 38.0029C11.7077 43.8742 14.2687 49.379 18.4356 53.5459C22.6024 57.7127 28.1072 60.2737 33.9785 60.7769C39.8498 61.2801 45.7101 59.6932 50.5252 56.2962C55.3403 52.8992 58.8007 47.9105 60.2957 42.2105C61.7907 36.5105 61.2241 30.4656 58.696 25.1426H59.3389C59.5731 25.1455 59.8053 25.0993 60.0206 25.007C60.2359 24.9148 60.4295 24.7785 60.5889 24.6069L64.4461 20.7854C67.0436 25.6783 68.3324 31.1594 68.1876 36.6971C68.0429 42.2348 66.4694 47.641 63.6198 52.3915C60.7703 57.142 56.7414 61.0754 51.9239 63.8101C47.1065 66.5449 41.664 67.9883 36.1244 68.0001Z" fill="#FFF832"/>
</svg>
