<svg width="70" height="74" viewBox="0 0 70 74" fill="none" xmlns="http://www.w3.org/2000/svg">
<path d="M65 0.75L65.2354 0.755859C66.4091 0.81533 67.5226 1.30912 68.3574 2.14551L68.5195 2.31641C69.3082 3.18885 69.7486 4.32538 69.75 5.50781V27.5488C69.75 60.2989 42.0172 71.1638 36.4727 73.0059L36.4736 73.0068C35.518 73.3315 34.482 73.3315 33.5264 73.0068V73.0059C27.9797 71.1629 0.250039 60.2972 0.25 27.5488V5.50781L0.255859 5.27246C0.315227 4.09697 0.807823 2.98184 1.64258 2.14551L1.81348 1.98242C2.68436 1.19242 3.81942 0.751321 5 0.75H65ZM4.87695 4.26172C4.63155 4.28633 4.39877 4.38324 4.20801 4.54004L4.11719 4.62305C3.88274 4.85792 3.75035 5.17643 3.75 5.50879V27.5488C3.75004 56.9314 27.8761 67.3122 34.0859 69.4941L34.6299 69.6797L34.6357 69.6816L34.7246 69.71C34.9349 69.7657 35.1582 69.7559 35.3643 69.6816L35.3701 69.6797L35.9141 69.4941C42.1239 67.3122 66.25 56.9314 66.25 27.5488V5.50879L66.2441 5.38477C66.2196 5.13902 66.1229 4.90583 65.9668 4.71484L65.8828 4.62305C65.6776 4.41755 65.4091 4.2904 65.123 4.26172L65 4.25586H5L4.87695 4.26172ZM51.7119 21.8018C51.8825 21.8226 52.0493 21.8687 52.207 21.9385L52.3613 22.0156C52.5106 22.1001 52.6468 22.2064 52.7656 22.3311L52.8789 22.4619C52.9846 22.5973 53.0697 22.7483 53.1318 22.9092C53.194 23.07 53.2323 23.2388 53.2451 23.4102L53.25 23.582C53.246 23.7546 53.2158 23.9255 53.1621 24.0889L53.1006 24.25C53.031 24.4077 52.939 24.5543 52.8271 24.6846L52.708 24.8096L30.708 45.8477C30.3825 46.1589 29.9501 46.333 29.5 46.333C29.106 46.333 28.7251 46.1999 28.418 45.958L28.291 45.8477L17.292 35.3281H17.291C16.999 35.0467 16.8146 34.6738 16.7666 34.2744L16.7549 34.1025C16.745 33.6391 16.9187 33.1899 17.2383 32.8545C17.5578 32.5192 17.9972 32.3242 18.46 32.3125L18.6328 32.3164C18.9761 32.3417 19.3042 32.4685 19.5762 32.6797L19.708 32.792V32.793L29.499 42.1562L50.292 22.2734L50.4219 22.1611C50.5571 22.0552 50.7074 21.9696 50.8682 21.9072L51.0312 21.8525C51.1967 21.8065 51.3687 21.785 51.541 21.7891L51.7119 21.8018Z" fill="#FFF832" stroke="#FFF832" stroke-width="0.5"/>
</svg>
