<svg width="64" height="64" viewBox="0 0 64 64" fill="none" xmlns="http://www.w3.org/2000/svg">
<path d="M56 43.7867V53.2163C56 54.6163 54.9176 55.7779 53.5213 55.8765C52.3549 55.9589 51.4035 56 50.6667 56C27.1024 56 8 36.8976 8 13.3333C8 12.5966 8.0412 11.645 8.1236 10.4787C8.22232 9.08235 9.38384 8 10.7836 8H20.2136C20.8981 8 21.4714 8.51845 21.5401 9.19947C21.6018 9.81085 21.6591 10.3017 21.7122 10.6721C22.2516 14.4393 23.3534 18.025 24.9299 21.3414C25.1829 21.8737 25.0179 22.5109 24.5383 22.8535L18.7828 26.9648C22.2867 35.1496 28.8504 41.7133 37.0352 45.2173L41.1389 39.4717C41.4859 38.9864 42.1307 38.8195 42.6693 39.0752C45.9856 40.6504 49.5709 41.7509 53.3376 42.2891C53.7056 42.3419 54.1933 42.3987 54.8005 42.46C55.4816 42.5288 56 43.1021 56 43.7867Z" fill="white"/>
</svg>
