<svg width="231" height="67" viewBox="0 0 231 67" fill="none" xmlns="http://www.w3.org/2000/svg">
<path d="M39.2374 46.7262L38.2066 51.0384H27.2545C24.6131 51.0384 22.8093 50.9097 21.7785 50.6523C20.7477 50.3948 20.1035 50.0087 19.8458 49.4938C19.5881 48.9789 19.5881 48.0778 19.9102 46.7262C16.6246 46.6619 13.9832 46.147 11.8572 45.0528C9.73121 44.0231 8.50716 42.6715 8.12061 41.0624C7.86292 39.5178 7.99176 37.1364 8.76485 33.9184L11.3418 22.9126C11.9216 20.4669 12.5659 18.6647 13.2745 17.3775C14.0476 16.0903 15.2072 14.9318 16.8823 13.7733C18.5573 12.6792 20.5544 11.7781 22.8737 11.2632C25.193 10.684 27.7055 10.4265 30.4113 10.4265C33.6325 10.4265 36.4671 10.7483 38.7864 11.4563C41.1701 12.1643 42.8451 13.0653 43.8115 14.1595C44.7778 15.2536 45.3576 16.3477 45.4865 17.5062C45.6153 18.6647 45.3576 20.4025 44.8423 22.7195L42.1364 34.2402C41.4278 37.3939 40.6547 39.5178 39.946 40.6763C39.2374 41.8348 38.0777 42.6715 36.5316 43.3794C34.9854 44.0231 33.0527 44.5379 30.7334 44.9241C30.6046 45.6965 30.7334 46.2113 31.1844 46.4044C31.6353 46.5975 32.6017 46.7262 34.2767 46.7262H39.2374ZM30.9267 20.3381C31.3132 18.6647 31.4421 17.635 31.2488 17.1844C31.0555 16.7339 30.5401 16.4765 29.6382 16.4765C28.8651 16.4765 28.2853 16.6695 27.7699 17.0557C27.2545 17.4419 26.8035 18.536 26.417 20.3381L22.5516 36.9433C22.1006 39.0029 21.9073 40.2901 22.0362 40.7406C22.165 41.1912 22.7448 41.4486 23.7112 41.4486C24.6776 41.4486 25.3862 41.1912 25.7728 40.6119C26.1593 40.0327 26.6103 38.7454 27.1257 36.6215L30.9267 20.3381Z" stroke="black" stroke-width="15.0295"/>
<path d="M110.168 11.1988L92.5803 46.7262H74.5416C74.1551 41.2555 74.1551 35.0769 74.4772 28.1258C73.1887 31.0865 70.4185 37.3295 66.1021 46.7262H48.1923L49.9961 11.1988H64.0405L62.6876 23.6206L61.3992 35.5917C63.3963 29.4131 66.6175 21.2392 71.0628 11.1988H86.0735C86.0091 12.2286 85.6226 16.1547 84.9139 22.9126L83.3677 36.4284C86.2024 27.804 92.065 19.4371 95.866 11.2632L110.168 11.1988Z" stroke="black" stroke-width="15.0295"/>
<path d="M110.168 11.1988H134.263L132.588 18.2786H122.924L121.378 25.0365H130.397L128.851 31.7944H119.832L118.028 39.6465H128.658L126.983 46.7262H101.922L110.168 11.1988Z" stroke="black" stroke-width="15.0295"/>
<path d="M167.505 21.9472H154.105L154.75 19.3084C155.007 18.0855 155.072 17.3132 154.75 16.9914C154.492 16.6695 153.976 16.4765 153.139 16.4765C152.237 16.4765 151.528 16.7339 151.013 17.1844C150.433 17.635 150.047 18.3429 149.853 19.244C149.596 20.4025 149.596 21.3036 149.982 21.9472C150.304 22.5264 151.528 23.2987 153.59 24.1354C159.452 26.5812 163.06 28.5764 164.349 30.121C165.637 31.6657 165.895 34.2401 165.122 37.7157C164.542 40.2257 163.64 42.0922 162.416 43.3151C161.192 44.5379 159.195 45.5034 156.36 46.3401C153.525 47.1767 150.304 47.5629 146.825 47.5629C142.96 47.5629 139.739 47.1124 137.226 46.147C134.714 45.1815 133.167 44.023 132.717 42.5427C132.201 41.0624 132.266 39.0672 132.91 36.3641L133.425 34.0471H146.825L145.795 38.3593C145.472 39.7108 145.472 40.5475 145.795 40.9337C146.052 41.3199 146.697 41.513 147.663 41.513C148.629 41.513 149.402 41.2555 149.982 40.805C150.562 40.2901 150.948 39.5821 151.206 38.6811C151.722 36.5571 151.593 35.2056 150.82 34.562C150.047 33.9183 148.049 32.8242 144.828 31.3439C141.607 29.7992 139.481 28.7051 138.45 28.0615C137.419 27.3535 136.711 26.4524 136.195 25.2296C135.68 24.0067 135.68 22.4621 136.131 20.5956C136.775 17.8924 137.742 15.8972 139.159 14.61C140.512 13.3228 142.509 12.3573 145.086 11.6494C147.663 10.9414 150.691 10.5552 154.105 10.5552C157.842 10.5552 160.999 10.9414 163.447 11.7137C165.895 12.4861 167.441 13.4515 168.021 14.6743C168.601 15.8328 168.536 17.828 167.892 20.6599L167.505 21.9472Z" stroke="black" stroke-width="15.0295"/>
<path d="M204.871 11.1988L203.196 18.2786H194.628L187.992 46.7262H173.561L180.197 18.2786H171.629L173.304 11.1988H204.871Z" stroke="black" stroke-width="15.0295"/>
<path d="M39.2374 46.7262L38.2066 51.0384H27.2545C24.6131 51.0384 22.8093 50.9097 21.7785 50.6523C20.7477 50.3948 20.1035 50.0087 19.8458 49.4938C19.5881 48.9789 19.5881 48.0778 19.9102 46.7262C16.6246 46.6619 13.9832 46.147 11.8572 45.0528C9.73121 44.0231 8.50716 42.6715 8.12061 41.0624C7.86292 39.5178 7.99176 37.1364 8.76485 33.9184L11.3418 22.9126C11.9216 20.4669 12.5659 18.6647 13.2745 17.3775C14.0476 16.0903 15.2072 14.9318 16.8823 13.7733C18.5573 12.6792 20.5544 11.7781 22.8737 11.2632C25.193 10.684 27.7055 10.4265 30.4113 10.4265C33.6325 10.4265 36.4671 10.7483 38.7864 11.4563C41.1701 12.1643 42.8451 13.0653 43.8115 14.1595C44.7778 15.2536 45.3576 16.3477 45.4865 17.5062C45.6153 18.6647 45.3576 20.4025 44.8423 22.7195L42.1364 34.2402C41.4278 37.3939 40.6547 39.5178 39.946 40.6763C39.2374 41.8348 38.0777 42.6715 36.5316 43.3794C34.9854 44.0231 33.0527 44.5379 30.7334 44.9241C30.6046 45.6965 30.7334 46.2113 31.1844 46.4044C31.6353 46.5975 32.6017 46.7262 34.2767 46.7262H39.2374ZM30.9267 20.3381C31.3132 18.6647 31.4421 17.635 31.2488 17.1844C31.0555 16.7339 30.5401 16.4765 29.6382 16.4765C28.8651 16.4765 28.2853 16.6695 27.7699 17.0557C27.2545 17.4419 26.8035 18.536 26.417 20.3381L22.5516 36.9433C22.1006 39.0029 21.9073 40.2901 22.0362 40.7406C22.165 41.1912 22.7448 41.4486 23.7112 41.4486C24.6776 41.4486 25.3862 41.1912 25.7728 40.6119C26.1593 40.0327 26.6103 38.7454 27.1257 36.6215L30.9267 20.3381Z" fill="black"/>
<path d="M110.168 11.1988L92.5803 46.7262H74.5416C74.1551 41.2555 74.1551 35.0769 74.4772 28.1258C73.1887 31.0865 70.4185 37.3295 66.1021 46.7262H48.1923L49.9961 11.1988H64.0405L62.6876 23.6206L61.3992 35.5917C63.3963 29.4131 66.6175 21.2392 71.0628 11.1988H86.0735C86.0091 12.2286 85.6226 16.1547 84.9139 22.9126L83.3677 36.4284C86.2024 27.804 92.065 19.4371 95.866 11.2632L110.168 11.1988Z" fill="black"/>
<path d="M110.168 11.1988H134.263L132.588 18.2786H122.924L121.378 25.0365H130.397L128.851 31.7944H119.832L118.028 39.6465H128.658L126.983 46.7262H101.922L110.168 11.1988Z" fill="black"/>
<path d="M167.505 21.9472H154.105L154.75 19.3084C155.007 18.0855 155.072 17.3132 154.75 16.9914C154.492 16.6695 153.976 16.4765 153.139 16.4765C152.237 16.4765 151.528 16.7339 151.013 17.1844C150.433 17.635 150.047 18.3429 149.853 19.244C149.596 20.4025 149.596 21.3036 149.982 21.9472C150.304 22.5264 151.528 23.2987 153.59 24.1354C159.452 26.5812 163.06 28.5764 164.349 30.121C165.637 31.6657 165.895 34.2401 165.122 37.7157C164.542 40.2257 163.64 42.0922 162.416 43.3151C161.192 44.5379 159.195 45.5034 156.36 46.3401C153.525 47.1767 150.304 47.5629 146.825 47.5629C142.96 47.5629 139.739 47.1124 137.226 46.147C134.714 45.1815 133.167 44.023 132.717 42.5427C132.201 41.0624 132.266 39.0672 132.91 36.3641L133.425 34.0471H146.825L145.795 38.3593C145.472 39.7108 145.472 40.5475 145.795 40.9337C146.052 41.3199 146.697 41.513 147.663 41.513C148.629 41.513 149.402 41.2555 149.982 40.805C150.562 40.2901 150.948 39.5821 151.206 38.6811C151.722 36.5571 151.593 35.2056 150.82 34.562C150.047 33.9183 148.049 32.8242 144.828 31.3439C141.607 29.7992 139.481 28.7051 138.45 28.0615C137.419 27.3535 136.711 26.4524 136.195 25.2296C135.68 24.0067 135.68 22.4621 136.131 20.5956C136.775 17.8924 137.742 15.8972 139.159 14.61C140.512 13.3228 142.509 12.3573 145.086 11.6494C147.663 10.9414 150.691 10.5552 154.105 10.5552C157.842 10.5552 160.999 10.9414 163.447 11.7137C165.895 12.4861 167.441 13.4515 168.021 14.6743C168.601 15.8328 168.536 17.828 167.892 20.6599L167.505 21.9472Z" fill="black"/>
<path d="M204.871 11.1988L203.196 18.2786H194.628L187.992 46.7262H173.561L180.197 18.2786H171.629L173.304 11.1988H204.871Z" fill="black"/>
<path d="M39.2374 46.7262L38.2066 51.0384H27.2545C24.6131 51.0384 22.8093 50.9097 21.7785 50.6523C20.7477 50.3948 20.1035 50.0087 19.8458 49.4938C19.5881 48.9789 19.5881 48.0778 19.9102 46.7262C16.6246 46.6619 13.9832 46.147 11.8572 45.0528C9.73121 44.0231 8.50716 42.6715 8.12061 41.0624C7.86292 39.5178 7.99176 37.1364 8.76485 33.9184L11.3418 22.9126C11.9216 20.4669 12.5659 18.6647 13.2745 17.3775C14.0476 16.0903 15.2072 14.9318 16.8823 13.7733C18.5573 12.6792 20.5544 11.7781 22.8737 11.2632C25.193 10.684 27.7055 10.4265 30.4113 10.4265C33.6325 10.4265 36.4671 10.7483 38.7864 11.4563C41.1701 12.1643 42.8451 13.0653 43.8115 14.1595C44.7778 15.2536 45.3576 16.3477 45.4865 17.5062C45.6153 18.6647 45.3576 20.4025 44.8423 22.7195L42.1364 34.2402C41.4278 37.3939 40.6547 39.5178 39.946 40.6763C39.2374 41.8348 38.0777 42.6715 36.5316 43.3794C34.9854 44.0231 33.0527 44.5379 30.7334 44.9241C30.6046 45.6965 30.7334 46.2113 31.1844 46.4044C31.6353 46.5975 32.6017 46.7262 34.2767 46.7262H39.2374ZM30.9267 20.3381C31.3132 18.6647 31.4421 17.635 31.2488 17.1844C31.0555 16.7339 30.5401 16.4765 29.6382 16.4765C28.8651 16.4765 28.2853 16.6695 27.7699 17.0557C27.2545 17.4419 26.8035 18.536 26.417 20.3381L22.5516 36.9433C22.1006 39.0029 21.9073 40.2901 22.0362 40.7406C22.165 41.1912 22.7448 41.4486 23.7112 41.4486C24.6776 41.4486 25.3862 41.1912 25.7728 40.6119C26.1593 40.0327 26.6103 38.7454 27.1257 36.6215L30.9267 20.3381Z" stroke="white" stroke-width="8.4541"/>
<path d="M110.168 11.1988L92.5803 46.7262H74.5416C74.1551 41.2555 74.1551 35.0769 74.4772 28.1258C73.1887 31.0865 70.4185 37.3295 66.1021 46.7262H48.1923L49.9961 11.1988H64.0405L62.6876 23.6206L61.3992 35.5917C63.3963 29.4131 66.6175 21.2392 71.0628 11.1988H86.0735C86.0091 12.2286 85.6226 16.1547 84.9139 22.9126L83.3677 36.4284C86.2024 27.804 92.065 19.4371 95.866 11.2632L110.168 11.1988Z" stroke="white" stroke-width="8.4541"/>
<path d="M110.168 11.1988H134.263L132.588 18.2786H122.924L121.378 25.0365H130.397L128.851 31.7944H119.832L118.028 39.6465H128.658L126.983 46.7262H101.922L110.168 11.1988Z" stroke="white" stroke-width="8.4541"/>
<path d="M167.505 21.9472H154.105L154.75 19.3084C155.007 18.0855 155.072 17.3132 154.75 16.9914C154.492 16.6695 153.976 16.4765 153.139 16.4765C152.237 16.4765 151.528 16.7339 151.013 17.1844C150.433 17.635 150.047 18.3429 149.853 19.244C149.596 20.4025 149.596 21.3036 149.982 21.9472C150.304 22.5264 151.528 23.2987 153.59 24.1354C159.452 26.5812 163.06 28.5764 164.349 30.121C165.637 31.6657 165.895 34.2401 165.122 37.7157C164.542 40.2257 163.64 42.0922 162.416 43.3151C161.192 44.5379 159.195 45.5034 156.36 46.3401C153.525 47.1767 150.304 47.5629 146.825 47.5629C142.96 47.5629 139.739 47.1124 137.226 46.147C134.714 45.1815 133.167 44.023 132.717 42.5427C132.201 41.0624 132.266 39.0672 132.91 36.3641L133.425 34.0471H146.825L145.795 38.3593C145.472 39.7108 145.472 40.5475 145.795 40.9337C146.052 41.3199 146.697 41.513 147.663 41.513C148.629 41.513 149.402 41.2555 149.982 40.805C150.562 40.2901 150.948 39.5821 151.206 38.6811C151.722 36.5571 151.593 35.2056 150.82 34.562C150.047 33.9183 148.049 32.8242 144.828 31.3439C141.607 29.7992 139.481 28.7051 138.45 28.0615C137.419 27.3535 136.711 26.4524 136.195 25.2296C135.68 24.0067 135.68 22.4621 136.131 20.5956C136.775 17.8924 137.742 15.8972 139.159 14.61C140.512 13.3228 142.509 12.3573 145.086 11.6494C147.663 10.9414 150.691 10.5552 154.105 10.5552C157.842 10.5552 160.999 10.9414 163.447 11.7137C165.895 12.4861 167.441 13.4515 168.021 14.6743C168.601 15.8328 168.536 17.828 167.892 20.6599L167.505 21.9472Z" stroke="white" stroke-width="8.4541"/>
<path d="M204.871 11.1988L203.196 18.2786H194.628L187.992 46.7262H173.561L180.197 18.2786H171.629L173.304 11.1988H204.871Z" stroke="white" stroke-width="8.4541"/>
<path d="M39.2374 46.7262L38.2066 51.0384H27.2545C24.6131 51.0384 22.8093 50.9097 21.7785 50.6523C20.7477 50.3948 20.1035 50.0087 19.8458 49.4938C19.5881 48.9789 19.5881 48.0778 19.9102 46.7262C16.6246 46.6619 13.9832 46.147 11.8572 45.0528C9.73121 44.0231 8.50716 42.6715 8.12061 41.0624C7.86292 39.5178 7.99176 37.1364 8.76485 33.9184L11.3418 22.9126C11.9216 20.4669 12.5659 18.6647 13.2745 17.3775C14.0476 16.0903 15.2072 14.9318 16.8823 13.7733C18.5573 12.6792 20.5544 11.7781 22.8737 11.2632C25.193 10.684 27.7055 10.4265 30.4113 10.4265C33.6325 10.4265 36.4671 10.7483 38.7864 11.4563C41.1701 12.1643 42.8451 13.0653 43.8115 14.1595C44.7778 15.2536 45.3576 16.3477 45.4865 17.5062C45.6153 18.6647 45.3576 20.4025 44.8423 22.7195L42.1364 34.2402C41.4278 37.3939 40.6547 39.5178 39.946 40.6763C39.2374 41.8348 38.0777 42.6715 36.5316 43.3794C34.9854 44.0231 33.0527 44.5379 30.7334 44.9241C30.6046 45.6965 30.7334 46.2113 31.1844 46.4044C31.6353 46.5975 32.6017 46.7262 34.2767 46.7262H39.2374ZM30.9267 20.3381C31.3132 18.6647 31.4421 17.635 31.2488 17.1844C31.0555 16.7339 30.5401 16.4765 29.6382 16.4765C28.8651 16.4765 28.2853 16.6695 27.7699 17.0557C27.2545 17.4419 26.8035 18.536 26.417 20.3381L22.5516 36.9433C22.1006 39.0029 21.9073 40.2901 22.0362 40.7406C22.165 41.1912 22.7448 41.4486 23.7112 41.4486C24.6776 41.4486 25.3862 41.1912 25.7728 40.6119C26.1593 40.0327 26.6103 38.7454 27.1257 36.6215L30.9267 20.3381Z" fill="black"/>
<path d="M110.168 11.1988L92.5803 46.7262H74.5416C74.1551 41.2555 74.1551 35.0769 74.4772 28.1258C73.1887 31.0865 70.4185 37.3295 66.1021 46.7262H48.1923L49.9961 11.1988H64.0405L62.6876 23.6206L61.3992 35.5917C63.3963 29.4131 66.6175 21.2392 71.0628 11.1988H86.0735C86.0091 12.2286 85.6226 16.1547 84.9139 22.9126L83.3677 36.4284C86.2024 27.804 92.065 19.4371 95.866 11.2632L110.168 11.1988Z" fill="black"/>
<path d="M110.168 11.1988H134.263L132.588 18.2786H122.924L121.378 25.0365H130.397L128.851 31.7944H119.832L118.028 39.6465H128.658L126.983 46.7262H101.922L110.168 11.1988Z" fill="black"/>
<path d="M167.505 21.9472H154.105L154.75 19.3084C155.007 18.0855 155.072 17.3132 154.75 16.9914C154.492 16.6695 153.976 16.4765 153.139 16.4765C152.237 16.4765 151.528 16.7339 151.013 17.1844C150.433 17.635 150.047 18.3429 149.853 19.244C149.596 20.4025 149.596 21.3036 149.982 21.9472C150.304 22.5264 151.528 23.2987 153.59 24.1354C159.452 26.5812 163.06 28.5764 164.349 30.121C165.637 31.6657 165.895 34.2401 165.122 37.7157C164.542 40.2257 163.64 42.0922 162.416 43.3151C161.192 44.5379 159.195 45.5034 156.36 46.3401C153.525 47.1767 150.304 47.5629 146.825 47.5629C142.96 47.5629 139.739 47.1124 137.226 46.147C134.714 45.1815 133.167 44.023 132.717 42.5427C132.201 41.0624 132.266 39.0672 132.91 36.3641L133.425 34.0471H146.825L145.795 38.3593C145.472 39.7108 145.472 40.5475 145.795 40.9337C146.052 41.3199 146.697 41.513 147.663 41.513C148.629 41.513 149.402 41.2555 149.982 40.805C150.562 40.2901 150.948 39.5821 151.206 38.6811C151.722 36.5571 151.593 35.2056 150.82 34.562C150.047 33.9183 148.049 32.8242 144.828 31.3439C141.607 29.7992 139.481 28.7051 138.45 28.0615C137.419 27.3535 136.711 26.4524 136.195 25.2296C135.68 24.0067 135.68 22.4621 136.131 20.5956C136.775 17.8924 137.742 15.8972 139.159 14.61C140.512 13.3228 142.509 12.3573 145.086 11.6494C147.663 10.9414 150.691 10.5552 154.105 10.5552C157.842 10.5552 160.999 10.9414 163.447 11.7137C165.895 12.4861 167.441 13.4515 168.021 14.6743C168.601 15.8328 168.536 17.828 167.892 20.6599L167.505 21.9472Z" fill="black"/>
<path d="M204.871 11.1988L203.196 18.2786H194.628L187.992 46.7262H173.561L180.197 18.2786H171.629L173.304 11.1988H204.871Z" fill="black"/>
<path d="M132.716 62.4304L132.588 62.8165C132.459 63.2027 132.33 63.5245 132.201 63.9107C132.072 64.2968 131.943 64.5543 131.75 64.8761C131.621 65.1979 131.364 65.4553 131.106 65.7771C130.784 66.0346 130.462 66.292 130.075 66.4851C129.882 66.6138 129.624 66.6782 129.431 66.7426C129.238 66.8069 128.98 66.8713 128.787 66.8713C128.658 66.8713 128.593 66.8713 128.465 66.9356C128.336 66.9356 128.271 66.9356 128.142 67C128.014 67 127.885 67 127.82 67C127.691 67 127.627 67 127.498 67H127.434H127.369H127.305H127.24C127.112 67 126.983 67 126.918 67C126.854 67 126.725 67 126.596 67C126.532 67 126.467 67 126.403 67C126.339 67 126.274 67 126.21 67C126.145 67 126.145 67 126.081 67C126.016 67 125.952 67 125.888 67C125.823 67 125.759 67 125.694 67C125.63 67 125.565 67 125.565 67C125.501 67 125.437 67 125.437 67C125.437 67 125.308 67 125.243 67C125.114 67 124.986 67 124.921 67C124.792 67 124.728 67 124.599 67C123.826 66.9356 123.311 66.7426 122.924 66.4851C122.538 66.2277 122.344 65.7771 122.344 65.3266C122.344 64.8117 122.344 64.2968 122.409 63.7176C122.473 63.1383 122.666 62.4947 122.795 61.8511L123.246 60.3064C123.568 59.2767 123.89 58.44 124.341 57.7964C124.728 57.0884 125.179 56.5735 125.694 56.2517C126.21 55.9299 126.789 55.6081 127.498 55.4793C128.207 55.2863 129.109 55.2219 130.075 55.2219L131.041 55.1575C131.041 55.1575 131.106 55.2219 131.17 55.2219C131.235 55.2219 131.235 55.2219 131.299 55.2219C131.364 55.2219 131.364 55.2219 131.428 55.2219C131.492 55.2219 131.492 55.2219 131.557 55.2219C131.879 55.2219 132.137 55.2863 132.394 55.2863C132.652 55.2863 132.91 55.415 133.167 55.4793C133.425 55.5437 133.618 55.6724 133.812 55.8655C133.941 56.0586 134.069 56.316 134.134 56.5735C134.198 56.7022 134.198 56.8309 134.198 57.024C134.198 57.1527 134.198 57.3458 134.198 57.4745C134.198 57.5389 134.198 57.6676 134.134 57.732C134.134 57.7964 134.134 57.8607 134.069 57.9894C134.069 58.0538 134.069 58.1825 134.005 58.2469C134.005 58.3112 133.941 58.44 133.941 58.5043C133.941 58.5687 133.941 58.5687 133.876 58.633C133.876 58.6974 133.876 58.6974 133.812 58.7618V58.8261V58.8905V58.9549V59.0192C133.812 59.0192 133.812 59.0192 133.812 59.0836C133.812 59.0836 133.812 59.0836 133.812 59.1479C133.812 59.1479 133.812 59.1479 133.812 59.2123L133.747 59.4054H130.655C130.719 59.1479 130.784 58.8905 130.784 58.6974C130.784 58.5043 130.784 58.3112 130.719 58.2469C130.655 58.1182 130.526 58.0538 130.333 57.9894C130.14 57.9251 129.882 57.9251 129.624 57.9251L129.109 57.8607H129.044H128.98H128.915H128.851H128.787H128.722H128.658H128.593C128.465 57.8607 128.4 57.8607 128.336 57.9251C128.271 57.9251 128.142 57.9894 128.078 57.9894C128.014 58.0538 127.885 58.0538 127.82 58.1182C127.756 58.1825 127.627 58.2469 127.563 58.3112C127.498 58.3756 127.434 58.44 127.369 58.5043C127.305 58.5687 127.24 58.633 127.176 58.7618C127.112 58.8261 127.112 58.9549 127.047 59.0192C126.983 59.0836 126.983 59.2123 126.918 59.2767C126.918 59.2767 126.918 59.2767 126.918 59.341C126.918 59.341 126.918 59.341 126.918 59.4054C126.918 59.4054 126.918 59.4054 126.918 59.4697C126.918 59.4697 126.918 59.4697 126.918 59.5341C126.918 59.5341 126.918 59.5341 126.918 59.5985C126.918 59.5985 126.918 59.5985 126.918 59.6628C126.918 59.6628 126.918 59.6628 126.918 59.7272C126.918 59.7916 126.918 59.7915 126.854 59.8559C126.854 59.9203 126.789 59.9203 126.789 59.9846C126.789 60.049 126.725 60.049 126.725 60.1134C126.725 60.1777 126.725 60.1777 126.661 60.2421C126.661 60.3064 126.661 60.3064 126.596 60.3708C126.596 60.4352 126.596 60.4352 126.532 60.4995C126.532 60.5639 126.467 60.5639 126.467 60.6282C126.467 60.6926 126.467 60.6926 126.403 60.757C126.403 60.8213 126.339 60.9501 126.339 61.0144C126.339 61.0788 126.274 61.2075 126.274 61.2719C126.274 61.3362 126.21 61.4649 126.21 61.5293C126.21 61.5937 126.145 61.7224 126.145 61.7867V61.8511V61.9155V61.9798V62.0442C126.145 62.1086 126.145 62.1086 126.145 62.1086V62.1729V62.2373V62.3016C126.016 62.7522 125.952 63.074 125.888 63.3958C125.888 63.6532 125.888 63.9107 125.952 64.1037C126.016 64.2325 126.21 64.3612 126.403 64.4256C126.661 64.4899 126.983 64.5543 127.434 64.5543C127.756 64.5543 128.014 64.5543 128.271 64.4899C128.529 64.4256 128.722 64.3612 128.915 64.2968C129.109 64.2325 129.302 64.0394 129.431 63.8463C129.56 63.6532 129.753 63.3314 129.817 63.0096C129.817 63.0096 129.817 63.0096 129.817 62.9452C129.817 62.9452 129.817 62.9452 129.817 62.8809C129.817 62.8809 129.817 62.8809 129.817 62.8165C129.817 62.8165 129.817 62.8165 129.817 62.7522C129.817 62.7522 129.817 62.7522 129.817 62.6878C129.817 62.6878 129.817 62.6878 129.817 62.6234C129.817 62.6234 129.817 62.6234 129.817 62.5591C129.817 62.5591 129.817 62.5591 129.817 62.4947V62.4304H132.716Z" fill="#ED1C24"/>
<path d="M136.26 55.0932H142.058C142.767 55.0932 143.411 55.2219 143.862 55.3506C144.377 55.4793 144.699 55.6724 144.957 55.9299C145.215 56.1873 145.279 56.5735 145.344 57.0884C145.344 57.6033 145.215 58.2469 144.957 59.0192C144.828 59.4697 144.699 59.8559 144.506 60.2421C144.313 60.6282 144.184 60.95 143.991 61.2075C143.797 61.4649 143.54 61.7224 143.153 61.9155C142.767 62.1085 142.316 62.2373 141.736 62.366V62.4304C142.058 62.4947 142.38 62.5591 142.573 62.6234C142.767 62.7522 142.96 62.8809 143.089 63.074C143.218 63.2671 143.282 63.5245 143.282 63.7819C143.282 64.0394 143.218 64.3612 143.089 64.7474L142.445 66.8713H139.288L139.803 65.3266C139.868 65.1335 139.932 64.8761 139.932 64.7474C139.932 64.5543 139.932 64.4256 139.868 64.2325C139.803 64.1038 139.739 63.975 139.61 63.9107C139.481 63.8463 139.288 63.7819 139.03 63.7819L136.711 63.7176L135.744 66.8069H132.652L136.26 55.0932ZM139.996 61.0788C140.061 61.0788 140.061 61.0788 140.125 61.0788C140.383 61.0788 140.576 61.0144 140.77 60.95C140.963 60.8857 141.092 60.757 141.156 60.6282C141.285 60.4995 141.349 60.3064 141.414 60.1134C141.478 59.9203 141.607 59.6628 141.671 59.4054C141.736 59.1479 141.8 58.8905 141.865 58.6974C141.865 58.5043 141.929 58.3112 141.865 58.1825C141.865 58.0538 141.736 57.9251 141.543 57.8607C141.349 57.7964 141.092 57.732 140.77 57.732L138.45 57.6676L137.419 60.8857H139.996V61.0788Z" fill="#ED1C24"/>
<path d="M147.47 64.8117L146.31 66.8069H143.089L150.24 55.0932H154.943L154.814 66.8713H151.657V64.8761L147.47 64.8117ZM151.85 57.4745L148.822 62.5591H151.722L151.85 57.4745Z" fill="#ED1C24"/>
<path d="M167.119 66.8713H161.836L161.385 57.8607H161.256L158.615 66.8713H155.587L159.259 55.0932H164.478L164.929 64.0394H165.057L167.699 55.0932H170.791L167.119 66.8713Z" fill="#ED1C24"/>
<path d="M174.27 59.7916H179.166L178.457 61.9798H173.561L172.853 64.2325H178.2L177.362 66.8069H168.858L172.53 55.0288H180.906L180.068 57.6033H174.785L174.27 59.7916Z" fill="#ED1C24"/>
<path d="M187.799 58.7618C187.863 58.5043 187.928 58.2469 187.928 58.0538C187.928 57.8607 187.863 57.732 187.799 57.6676C187.734 57.6033 187.541 57.5389 187.412 57.4745C187.219 57.4102 187.026 57.4102 186.704 57.4102L186.382 57.3458L186.317 57.4102C186.317 57.4102 186.317 57.4102 186.253 57.4102C186.253 57.4102 186.253 57.4102 186.188 57.4102C186.188 57.4102 186.188 57.4102 186.124 57.4102C185.931 57.4102 185.737 57.4102 185.544 57.4745C185.351 57.4745 185.158 57.5389 184.964 57.6033C184.771 57.6676 184.642 57.732 184.513 57.9251C184.384 58.0538 184.256 58.2469 184.191 58.5043C184.127 58.6974 184.127 58.8261 184.062 58.9549C184.062 59.0836 184.062 59.2123 184.127 59.2767C184.191 59.341 184.256 59.4054 184.384 59.4697C184.513 59.5341 184.642 59.5341 184.835 59.5985C184.9 59.5985 185.029 59.5985 185.093 59.5985C185.158 59.5985 185.286 59.5985 185.351 59.5985C185.415 59.5985 185.544 59.5985 185.609 59.5985C185.673 59.5985 185.802 59.5985 185.866 59.5985C185.866 59.5985 185.866 59.5985 185.931 59.5985C185.931 59.5985 185.931 59.5985 185.995 59.5985C185.995 59.5985 185.995 59.5985 186.059 59.5985C186.059 59.5985 186.059 59.5985 186.124 59.5985C186.704 59.5985 187.219 59.6628 187.735 59.7916C188.25 59.8559 188.701 59.9846 189.152 60.1777C189.603 60.3064 189.86 60.6282 189.925 61.1431C189.989 61.5937 189.925 62.2373 189.667 63.074C189.667 63.1383 189.667 63.1383 189.603 63.2027C189.603 63.2671 189.603 63.2671 189.538 63.3314C189.538 63.3958 189.538 63.3958 189.474 63.4601C189.474 63.5245 189.474 63.5245 189.41 63.5889C189.41 63.6532 189.41 63.6532 189.345 63.7176C189.345 63.7819 189.345 63.7819 189.281 63.8463C189.281 63.9107 189.281 63.9107 189.216 63.975C189.216 64.0394 189.152 64.0394 189.152 64.1037C189.087 64.2968 189.023 64.4899 188.894 64.6186C188.83 64.8117 188.701 64.9404 188.572 65.1335C188.443 65.3266 188.379 65.4553 188.185 65.6484C188.057 65.7771 187.863 65.9059 187.735 66.0346C187.477 66.1633 187.284 66.292 187.026 66.4208C186.768 66.5495 186.51 66.6138 186.317 66.6782C186.059 66.7426 185.802 66.7426 185.609 66.8069C185.351 66.8069 185.093 66.8713 184.9 66.8713C184.835 66.8713 184.835 66.8713 184.771 66.8713C184.707 66.8713 184.707 66.8713 184.642 66.8713C184.578 66.8713 184.578 66.8713 184.513 66.8713C184.449 66.8713 184.449 66.8713 184.384 66.8713C184.32 66.8713 184.32 66.8713 184.256 66.8713C184.191 66.8713 184.191 66.8713 184.191 66.8713C184.127 66.8713 184.127 66.8713 184.062 66.8713C183.998 66.8713 183.998 66.8713 183.933 66.8713H183.16C182.387 66.8713 181.679 66.8069 181.099 66.7426C180.519 66.6782 180.068 66.5495 179.682 66.3564C179.295 66.1633 179.102 65.8415 179.102 65.2623C179.102 64.683 179.231 63.975 179.488 63.0096L182.452 62.9453C182.387 63.2027 182.323 63.3958 182.323 63.5889C182.323 63.7819 182.323 63.9107 182.323 64.0394C182.387 64.1681 182.452 64.2325 182.581 64.2968C182.709 64.3612 182.903 64.3612 183.16 64.3612L184.513 64.2968H184.578H184.642C184.835 64.2968 184.964 64.2968 185.093 64.2325C185.222 64.2325 185.351 64.1681 185.48 64.1037C185.609 64.0394 185.802 63.9107 185.866 63.7819C185.995 63.5889 186.059 63.3958 186.188 63.1383C186.253 62.8809 186.317 62.6878 186.253 62.5591C186.253 62.4304 186.188 62.3016 186.059 62.2373C185.931 62.1729 185.866 62.1086 185.673 62.1086C185.544 62.1086 185.351 62.0442 185.158 62.0442C185.158 62.0442 185.158 62.0442 185.093 62.0442C185.093 62.0442 185.093 62.0442 185.029 62.0442C184.9 62.0442 184.835 62.0442 184.707 62.0442C184.642 62.0442 184.513 62.0442 184.449 62.0442C184.384 62.0442 184.256 62.0442 184.191 62.0442C184.127 62.0442 183.998 62.0442 183.933 62.0442C183.289 61.9798 182.709 61.9155 182.194 61.8511C181.679 61.7224 181.292 61.5937 180.97 61.4006C180.648 61.2075 180.455 60.8857 180.455 60.3708C180.455 59.8559 180.583 59.1479 180.841 58.3112C181.034 57.7964 181.228 57.3458 181.421 56.9597C181.614 56.5735 181.936 56.2517 182.194 55.9942C182.516 55.7368 182.838 55.4794 183.289 55.3506C183.676 55.2219 184.191 55.0932 184.707 55.0288C184.9 55.0288 185.029 55.0288 185.222 55.0288C185.415 55.0288 185.544 55.0288 185.737 55.0288C185.802 55.0288 185.931 55.0288 185.995 55.0288C186.059 55.0288 186.188 55.0288 186.253 55.0288C186.317 55.0288 186.446 55.0288 186.51 55.0288C186.575 55.0288 186.704 55.0288 186.768 55.0288C187.412 55.0288 188.057 55.0932 188.572 55.1575C189.087 55.2219 189.603 55.3506 189.989 55.4793C190.376 55.6081 190.634 55.9299 190.698 56.4448C190.762 56.9597 190.698 57.6033 190.44 58.44C190.44 58.44 190.44 58.44 190.44 58.5043V58.5687C190.44 58.5687 190.44 58.5687 190.44 58.633C190.44 58.633 190.44 58.633 190.44 58.6974C190.44 58.6974 190.44 58.6974 190.44 58.7618V58.8261C190.44 58.8261 190.44 58.8261 190.44 58.8905V58.8261L187.799 58.7618Z" fill="#ED1C24"/>
<path d="M204.163 56.9597C204.163 56.9597 207.706 57.6033 209.767 55.6081C211.12 54.2565 211.636 51.9395 211.056 50.1374C210.734 49.0432 210.025 48.2065 209.961 48.2709C209.832 48.3353 210.863 49.7512 210.798 51.6177C210.734 53.4842 209.51 55.3506 207.835 56.316C206.031 57.2815 204.163 56.9597 204.163 56.9597Z" fill="white"/>
<path d="M206.933 33.4035L206.031 35.2699L201.199 33.0817C201.199 33.0817 201.908 24.9721 202.294 20.2738C202.681 15.6398 203.518 10.9414 205.966 8.36696C208.415 5.79251 211.185 4.24784 211.185 4.24784L213.504 5.4707L210.541 20.0807L209.381 30.3141L206.933 33.4035Z" fill="#C4161C"/>
<path d="M204.163 32.6311L205.966 26.903L208.994 26.3881L208.608 32.245L204.163 32.6311Z" fill="#808080"/>
<path d="M208.415 32.1806L204.163 32.6311L204.356 33.4035L206.16 34.4332L206.804 32.8886L208.415 32.6955V32.1806Z" fill="black"/>
<path d="M211.894 36.4284L214.471 36.2353L212.28 35.2699L211.894 36.4284Z" fill="black"/>
<path d="M217.756 37.7157L208.286 33.4678L208.994 20.4669C208.994 20.4669 209.059 10.7483 211.378 7.59462C213.633 4.37656 219.56 0 219.56 0L230.061 6.6292C230.061 6.6292 232.38 15.8329 228.579 21.7541C224.778 27.6753 217.756 37.7157 217.756 37.7157Z" fill="#ED1C24"/>
<path d="M226.26 5.08454L221.106 1.80212L216.339 3.34678C216.339 3.34678 214.47 5.1489 213.633 6.04995C212.989 6.75793 212.409 7.72335 212.151 8.23824C211.765 9.07493 211.636 9.97599 211.636 9.97599L226.26 5.08454Z" fill="white"/>
<path d="M229.352 7.85207L229.932 12.5504L210.412 19.952L210.927 14.3525L229.352 7.85207Z" fill="white"/>
<path d="M229.61 16.6695C229.61 16.6695 229.481 17.9568 228.644 19.8232C228.128 20.853 226.904 22.7195 226.904 22.7195L209.51 29.928L209.832 24.4573L229.61 16.6695Z" fill="white"/>
<path d="M224.263 26.9673L219.173 34.1758L215.695 36.2353L209.896 33.5965L224.263 26.9673Z" fill="white"/>
<path d="M215.912 7.73556C216.158 7.06851 215.762 6.30848 215.028 6.03799C214.293 5.76749 213.498 6.08896 213.252 6.75601C213.006 7.42306 213.402 8.18309 214.136 8.45359C214.871 8.72409 215.666 8.40261 215.912 7.73556Z" fill="#666766"/>
<path d="M216.713 32.6641C217.07 31.6969 216.521 30.6038 215.486 30.2226C214.451 29.8415 213.322 30.3166 212.966 31.2838C212.609 32.2511 213.158 33.3441 214.193 33.7253C215.228 34.1064 216.357 33.6313 216.713 32.6641Z" fill="#666766"/>
<path d="M222.948 15.7451C223.428 14.4444 222.68 12.9713 221.278 12.4549C219.876 11.9385 218.35 12.5743 217.87 13.8751C217.39 15.1758 218.138 16.6489 219.54 17.1653C220.942 17.6817 222.468 17.0459 222.948 15.7451Z" fill="#666766"/>
<path d="M223.534 26.3695C223.792 25.6691 223.379 24.872 222.611 24.5892C221.843 24.3064 221.011 24.645 220.753 25.3454C220.495 26.0458 220.908 26.8428 221.675 27.1256C222.443 27.4084 223.275 27.0699 223.534 26.3695Z" fill="#666766"/>
<path d="M230.207 15.7617C230.465 15.0613 230.052 14.2643 229.284 13.9815C228.516 13.6987 227.684 14.0372 227.426 14.7376C227.168 15.438 227.58 16.2351 228.348 16.5179C229.116 16.8006 229.948 16.4621 230.207 15.7617Z" fill="#666766"/>
<path d="M212.949 21.16C213.208 20.4596 212.795 19.6625 212.027 19.3797C211.259 19.0969 210.427 19.4355 210.169 20.1359C209.91 20.8363 210.323 21.6333 211.091 21.9161C211.859 22.1989 212.691 21.8604 212.949 21.16Z" fill="#666766"/>
<path d="M203.003 43.4438L202.939 43.5725C202.939 43.5725 203.518 44.3449 203.905 44.6023C204.807 45.3103 206.289 46.6619 206.611 48.0778C206.997 49.4938 206.997 51.4246 206.224 52.5187C205.451 53.6129 204.356 55.0288 203.325 55.1575C202.488 55.2863 201.199 55.0932 200.555 54.7714C200.362 54.707 200.297 54.5783 200.168 54.5139C199.782 54.0634 200.362 55.2863 201.264 55.5437C201.972 55.7368 204.807 56.5091 205.773 55.6724C206.353 55.1575 207.77 54.1278 208.35 52.7762C208.93 51.4246 209.059 49.365 208.286 48.0134C207.513 46.6619 206.74 45.5677 206.224 45.1816C205.709 44.7954 203.003 43.4438 203.003 43.4438Z" fill="#666766"/>
<path d="M212.28 35.2699L209.767 42.4784C209.767 42.4784 210.025 42.9289 210.412 43.5082C210.798 44.0231 214.986 49.1076 212.409 54.2565C210.218 58.633 207.126 60.6926 202.552 60.049C197.978 59.4054 196.496 56.0586 196.174 54.5783C195.787 52.7118 195.659 49.5581 195.659 49.2363C195.594 48.9145 195.401 47.9491 195.852 47.6916C196.303 47.4342 197.012 47.1768 197.398 47.9491C197.785 48.7214 199.009 52.7118 199.524 53.4841C200.039 54.2565 200.748 55.2219 201.199 55.415C201.586 55.5437 202.939 56.0586 204.098 55.9299C204.871 55.8655 206.675 55.0932 207.513 54.0634C208.221 53.1623 208.801 52.2613 208.801 50.4592C208.801 49.7512 208.286 47.9491 207.642 47.048C206.997 46.147 206.675 45.6321 206.031 45.2459C205.387 44.7954 204.356 44.2805 203.712 44.0874C203.067 43.8943 202.681 43.83 203.132 42.7358C203.583 41.6417 206.675 33.0817 206.675 33.0817C206.675 33.0817 206.804 32.8242 207.062 32.8242C207.642 32.8242 208.35 32.6955 208.35 32.6955L208.286 33.5965L212.28 35.2699Z" fill="#333333"/>
<path d="M216.17 7.59874C216.417 6.93169 216.021 6.17166 215.286 5.90116C214.552 5.63067 213.757 5.95214 213.511 6.61919C213.264 7.28624 213.66 8.04627 214.395 8.31677C215.129 8.58726 215.924 8.26579 216.17 7.59874Z" fill="#CCCCCB"/>
<path d="M216.961 32.4847C217.318 31.5174 216.768 30.4244 215.733 30.0432C214.698 29.6621 213.57 30.1372 213.213 31.1044C212.856 32.0716 213.406 33.1647 214.441 33.5458C215.476 33.927 216.604 33.4519 216.961 32.4847Z" fill="#CCCCCB"/>
<path d="M223.195 15.5657C223.675 14.265 222.927 12.7919 221.525 12.2755C220.123 11.7591 218.597 12.3949 218.117 13.6957C217.637 14.9964 218.385 16.4695 219.787 16.9859C221.189 17.5023 222.715 16.8665 223.195 15.5657Z" fill="#CCCCCB"/>
<path d="M223.781 26.1901C224.039 25.4897 223.626 24.6927 222.859 24.4099C222.091 24.1271 221.259 24.4656 221 25.166C220.742 25.8664 221.155 26.6635 221.923 26.9463C222.691 27.229 223.523 26.8905 223.781 26.1901Z" fill="#CCCCCB"/>
<path d="M230.454 15.5823C230.713 14.8819 230.3 14.0849 229.532 13.8021C228.764 13.5193 227.932 13.8578 227.673 14.5582C227.415 15.2587 227.828 16.0557 228.596 16.3385C229.364 16.6213 230.196 16.2827 230.454 15.5823Z" fill="#CCCCCB"/>
<path d="M213.207 20.9397C213.466 20.2393 213.053 19.4422 212.285 19.1594C211.517 18.8766 210.685 19.2152 210.427 19.9156C210.168 20.616 210.581 21.413 211.349 21.6958C212.117 21.9786 212.949 21.6401 213.207 20.9397Z" fill="#CCCCCB"/>
<path d="M209.188 16.2834L209.574 12.7435L210.476 9.33237C210.476 9.33237 208.737 10.3622 207.899 11.6494C207.062 13.001 206.997 14.6743 207.384 16.0903C207.77 17.5062 209.059 18.4717 209.059 18.4717L209.188 16.2834Z" fill="#191919"/>
<path d="M211.7 7.07973L207.577 8.17387L207.126 9.07493L210.863 8.36695L211.7 7.07973Z" fill="#333333"/>
<path d="M208.994 19.8232L204.871 20.0807L204.807 21.1105L208.93 21.1748L208.994 19.8232Z" fill="#333333"/>
<path d="M208.35 57.0884C208.35 57.0884 210.347 55.6081 211.185 53.999C212.022 52.39 212.216 51.1028 212.151 50.073C212.087 48.9789 212.087 53.6772 208.35 57.0884Z" fill="#808080"/>
</svg>
