<svg width="659" height="614" viewBox="0 0 659 614" fill="none" xmlns="http://www.w3.org/2000/svg">
<g clip-path="url(#clip0_121_3)">
<path d="M651.171 351.097C651.171 351.097 653.553 360.186 645.199 358.032C636.863 355.861 635.672 358.838 633.868 363.006C632.082 367.192 630.295 364.214 623.745 363.006C617.178 361.815 628.509 366.596 617.178 361.815C605.846 357.052 608.841 356.824 599.296 356.334C589.751 355.861 586.179 356.334 586.179 356.334L583.849 358.663H447.261V290.275H413.285V111.89C415.912 114.481 419.344 116.828 424.318 118.282C438.627 122.45 441.902 143.921 455.913 141.539C469.924 139.14 479.153 108.142 479.749 85.4977C480.362 62.8361 482.744 55.6733 488.103 52.3984C493.462 49.1235 484.53 26.4619 493.164 24.6756C501.816 22.8893 503.007 -6.02437 508.068 1.13838C513.147 8.28362 507.473 25.2711 512.254 27.3551C517.018 29.4566 519.399 28.5635 517.018 38.9836C514.636 49.4213 530.433 54.1848 527.158 64.9201C523.883 75.6555 518.209 79.5258 525.372 83.3962C532.517 87.284 532.815 75.6555 539.085 85.2C545.337 94.727 556.073 93.5361 550.101 103.974C544.146 114.411 551.309 123.938 555.775 129.315C560.241 134.674 553.095 144.218 553.095 156.144C553.095 168.071 566.213 162.397 569.786 176.705C573.359 191.013 592.746 192.203 596.617 199.366C600.487 206.511 598.105 207.702 600.487 217.247C602.869 226.791 605.549 240.504 613.307 239.611C621.066 238.717 627.616 233.043 627.02 250.328C626.425 267.631 631.188 272.99 639.542 279.54C647.879 286.107 646.092 289.382 649.98 300.415C653.851 311.448 657.424 310.555 654.149 325.459C652.415 333.322 654.919 341.273 656.933 349.171L651.171 351.097Z" fill="#FFF832" stroke="#111111" stroke-width="2"/>
<path d="M413.285 111.89V290.275H254.087V82.3278C255.137 82.2753 256.398 82.503 257.975 83.0984C264.227 85.4977 266.907 83.0984 266.311 80.4189C265.716 77.7395 264.227 69.9988 268.395 66.111C272.581 62.2406 267.204 67.8973 274.665 55.9885C282.108 44.0623 271.986 30.3497 288.676 30.052C305.366 29.7543 294.333 35.7087 308.046 30.052C321.759 24.3779 320.866 23.4847 318.484 20.5075C316.102 17.5303 316.995 12.4516 310.13 12.1539C303.282 11.8562 311.321 4.41323 318.186 7.39042C325.034 10.3676 321.461 17.5303 330.708 17.8281C339.938 18.1258 338.449 13.0471 347.101 19.0189C355.753 24.9733 356.646 29.4566 364.685 26.4619C372.741 23.4847 369.466 23.7824 373.932 24.9733C378.398 26.1642 385.561 14.5532 388.24 17.2326C390.92 19.9121 381.673 33.6246 387.05 34.5178C392.409 35.411 390.027 25.271 396.297 29.4566C402.549 33.6246 395.386 30.9452 393.897 41.0676C392.409 51.2075 398.083 50.6121 387.943 53.2916C377.802 55.9885 376.909 58.0726 380.184 67.8973C383.477 77.7395 375.123 70.5942 378.993 83.6938C382.881 96.811 395.981 95.9178 402.251 99.2102C406.332 101.347 408.381 107.038 413.285 111.89Z" fill="#CCA421" stroke="#111111" stroke-width="2"/>
<path d="M254.087 82.3279V399.03C248.798 400.816 243.964 403.373 240.076 406.841C226.66 418.749 227.851 410.413 212.947 414.879C198.043 419.345 192.386 418.452 190.302 432.462C188.218 446.472 174.505 448.276 160.494 446.77C146.483 445.281 129.18 439.922 120.248 450.956C111.299 461.971 108.024 471.218 91.3332 471.218C74.6428 471.218 71.0525 470.622 63.3115 470.325C55.553 470.027 52.5757 463.18 52.5757 463.18C52.5757 463.18 48.7052 450.36 58.828 447.961C68.9684 445.579 57.6371 428.294 58.828 422.042C60.0365 415.772 55.2553 416.07 47.812 402.953C40.3512 389.836 36.7785 386.859 36.4807 372.253C36.183 357.647 20.9812 349.294 16.4978 340.957C12.0318 332.604 1.89147 318.594 6.9704 312.341C12.0318 306.072 3.38013 295.354 0.700552 281.046C-1.97902 266.738 3.9931 275.67 2.78467 256.896C1.59374 238.122 1.59374 236.021 10.2454 238.122C18.8971 240.206 17.391 236.318 29.9132 224.409C42.4354 212.483 47.2165 204.725 61.2274 205.32C75.2382 205.916 73.1366 197.282 88.9513 193.394C104.749 189.524 112.787 187.44 122.034 171.941C131.282 156.442 128.287 157.335 136.641 154.06C144.995 150.768 134.557 142.134 143.786 133.185C153.033 124.236 154.224 129.613 164.662 126.04C175.101 122.45 164.067 119.77 171.51 105.76C178.971 91.7498 172.421 88.7726 186.134 87.284C199.83 85.7954 194.768 70.892 204.909 69.3859C215.049 67.8973 210.863 60.1566 223.088 66.7064C235.312 73.2737 243.071 75.6555 240.969 81.6098C238.885 87.5817 243.368 89.6657 246.941 86.9863C249.603 84.9723 250.952 82.468 254.087 82.3279Z" fill="#FFF832" stroke="#111111" stroke-width="2"/>
<path d="M447.261 290.275V524.177C444.687 521.655 441.482 518.888 435.037 516.524C419.537 510.867 431.464 480.167 421.324 475.088C411.201 470.027 405.526 476.892 407.908 466.752C410.308 456.612 415.667 461.376 410.308 456.612C404.931 451.849 401.656 454.826 395.981 456.612C390.325 458.398 390.027 455.124 395.386 446.77C400.763 438.434 404.633 438.136 404.038 429.783C403.442 421.446 404.633 415.772 399.274 418.452C393.897 421.149 404.335 431.569 387.645 433.057C370.955 434.564 377.207 455.421 367.662 449.467C358.135 443.495 366.173 433.951 353.056 430.973C339.938 427.996 336.068 426.21 332.495 413.093C328.922 399.976 311.321 399.678 294.631 396.701C282.791 394.582 267.029 394.582 254.087 399.03V290.275H447.261Z" fill="#CCA421" stroke="#111111" stroke-width="2"/>
<path d="M582.904 517.417C582.606 523.686 571.572 535.91 553.096 534.422C534.601 532.933 531.624 549.325 523.585 548.432C515.529 547.539 503.602 546.348 500.327 538.292C497.052 530.236 504.495 530.832 500.327 529.343C496.159 527.854 498.243 535.91 488.103 536.506C477.962 537.101 476.474 532.635 461.867 531.427C453.338 530.726 450.904 527.697 447.261 524.177V448.118H465.598C465.598 448.118 469.171 460.185 473.654 459.292C478.12 458.398 485.651 456.612 485.458 464.668C485.266 472.706 489.294 470.92 494.215 478.521C499.136 486.121 501.816 486.577 510.31 482.549C518.804 478.521 514.338 485.683 520.818 488.135C527.298 490.605 534.006 488.591 543.848 491.27C553.691 493.949 556.143 498.205 554.356 501.112C552.57 504.002 546.09 506.471 556.598 511.83C567.106 517.207 562.185 514.965 567.772 519.658C573.359 524.352 582.904 517.417 582.904 517.417Z" fill="#CCA421" stroke="#111111" stroke-width="2"/>
<path d="M657.721 370.169C652.66 384.774 640.733 407.436 640.733 418.452C640.733 429.467 639.84 418.749 628.211 433.057C616.582 447.365 605.846 457.505 604.655 467.347C603.464 477.19 597.212 480.465 591.835 491.795C586.476 503.109 583.201 511.165 582.904 517.417C582.904 517.417 573.359 524.352 567.772 519.658C562.185 514.965 567.106 517.207 556.598 511.83C546.09 506.471 552.57 504.002 554.356 501.112C556.143 498.205 553.691 493.949 543.848 491.27C534.006 488.591 527.298 490.605 520.818 488.135C514.338 485.683 518.804 478.521 510.31 482.549C501.816 486.577 499.136 486.121 494.215 478.521C489.294 470.92 485.266 472.706 485.458 464.668C485.651 456.612 478.12 458.398 473.654 459.292C469.171 460.185 465.598 448.118 465.598 448.118H447.261V358.663H583.849L586.179 356.334C586.179 356.334 589.751 355.861 599.296 356.334C608.841 356.824 605.846 357.052 617.178 361.815C628.509 366.596 617.178 361.815 623.745 363.006C630.295 364.214 632.082 367.192 633.868 363.006C635.672 358.838 636.863 355.861 645.199 358.032C653.553 360.186 651.171 351.097 651.171 351.097L656.933 349.171C658.72 356.246 660.121 363.269 657.721 370.169Z" fill="#CCA421" stroke="#111111" stroke-width="2"/>
<path d="M496.457 558.187C498.698 558.554 503.007 557.591 507.788 561.462C512.552 565.332 514.951 568.624 523.585 568.011C532.219 567.398 533.13 563.02 541.467 563.125C549.821 563.248 543.253 565.927 543.551 574.561C543.848 583.195 547.719 586.19 542.658 591.251C537.596 596.312 540.276 604.035 537.596 604.035C534.916 604.035 532.535 597.135 530.135 604.035C527.736 610.935 520.45 616.592 512.779 612.722C505.108 608.851 509.277 604.963 503.918 599.307C498.558 593.65 500.94 588.939 503.322 586.085C505.704 583.23 497.665 573.388 496.474 569.5C495.283 565.63 488.541 556.873 496.474 558.169L496.457 558.187Z" fill="#CCA421" stroke="#111111" stroke-width="2"/>
<g clip-path="url(#clip1_121_3)">
<path d="M217.909 291.091C217.307 291.091 216.818 291.579 216.818 292.182C216.818 292.783 216.329 293.273 215.727 293.273C215.126 293.273 214.636 292.783 214.636 292.182C214.636 291.58 215.126 291.091 215.727 291.091C216.33 291.091 216.818 290.603 216.818 290V284.545H217.909C218.436 284.545 218.888 284.168 218.982 283.649C219.077 283.13 218.786 282.618 218.292 282.433L206.656 278.069C206.533 278.024 206.403 278 206.273 278H203.727V284.545H201.545V278H199C198.635 278 198.295 278.182 198.092 278.486L195.183 282.849C195.064 283.029 195 283.239 195 283.455V288.545C195 289.148 195.488 289.636 196.091 289.636C196.693 289.636 197.182 289.148 197.182 288.545V284.545H199.364V299.818H199C198.397 299.818 197.909 300.306 197.909 300.909C197.909 301.511 198.397 302 199 302H200.455H204.818H206.273C206.875 302 207.364 301.511 207.364 300.909C207.364 300.306 206.875 299.818 206.273 299.818H205.909V284.545H214.636V289.097C213.367 289.547 212.454 290.76 212.454 292.182C212.454 293.986 213.923 295.454 215.727 295.454C217.532 295.454 219 293.986 219 292.182C219 291.579 218.511 291.091 217.909 291.091Z" fill="black"/>
</g>
</g>
<g clip-path="url(#clip2_121_3)">
<path d="M149.909 390.091C149.307 390.091 148.818 390.579 148.818 391.182C148.818 391.783 148.329 392.273 147.727 392.273C147.126 392.273 146.636 391.783 146.636 391.182C146.636 390.58 147.126 390.091 147.727 390.091C148.33 390.091 148.818 389.603 148.818 389V383.545H149.909C150.436 383.545 150.888 383.168 150.982 382.649C151.077 382.13 150.786 381.618 150.292 381.433L138.656 377.069C138.533 377.024 138.403 377 138.273 377H135.727V383.545H133.545V377H131C130.635 377 130.295 377.182 130.092 377.486L127.183 381.849C127.064 382.029 127 382.239 127 382.455V387.545C127 388.148 127.488 388.636 128.091 388.636C128.693 388.636 129.182 388.148 129.182 387.545V383.545H131.364V398.818H131C130.397 398.818 129.909 399.306 129.909 399.909C129.909 400.511 130.397 401 131 401H132.455H136.818H138.273C138.875 401 139.364 400.511 139.364 399.909C139.364 399.306 138.875 398.818 138.273 398.818H137.909V383.545H146.636V388.097C145.367 388.547 144.454 389.76 144.454 391.182C144.454 392.986 145.923 394.454 147.727 394.454C149.532 394.454 151 392.986 151 391.182C151 390.579 150.511 390.091 149.909 390.091Z" fill="black"/>
</g>
<g clip-path="url(#clip3_121_3)">
<path d="M214.909 166.091C214.307 166.091 213.818 166.579 213.818 167.182C213.818 167.783 213.329 168.273 212.727 168.273C212.126 168.273 211.636 167.783 211.636 167.182C211.636 166.58 212.126 166.091 212.727 166.091C213.33 166.091 213.818 165.603 213.818 165V159.545H214.909C215.436 159.545 215.888 159.168 215.982 158.649C216.077 158.13 215.786 157.618 215.292 157.433L203.656 153.069C203.533 153.024 203.403 153 203.273 153H200.727V159.545H198.545V153H196C195.635 153 195.295 153.182 195.092 153.486L192.183 157.849C192.064 158.029 192 158.239 192 158.455V163.545C192 164.148 192.488 164.636 193.091 164.636C193.693 164.636 194.182 164.148 194.182 163.545V159.545H196.364V174.818H196C195.397 174.818 194.909 175.306 194.909 175.909C194.909 176.511 195.397 177 196 177H197.455H201.818H203.273C203.875 177 204.364 176.511 204.364 175.909C204.364 175.306 203.875 174.818 203.273 174.818H202.909V159.545H211.636V164.097C210.367 164.547 209.454 165.76 209.454 167.182C209.454 168.986 210.923 170.454 212.727 170.454C214.532 170.454 216 168.986 216 167.182C216 166.579 215.511 166.091 214.909 166.091Z" fill="black"/>
</g>
<g clip-path="url(#clip4_121_3)">
<path d="M519.909 124.091C519.307 124.091 518.818 124.579 518.818 125.182C518.818 125.783 518.329 126.273 517.727 126.273C517.126 126.273 516.636 125.783 516.636 125.182C516.636 124.58 517.126 124.091 517.727 124.091C518.33 124.091 518.818 123.603 518.818 123V117.545H519.909C520.436 117.545 520.888 117.168 520.982 116.649C521.077 116.13 520.786 115.618 520.292 115.433L508.656 111.069C508.533 111.024 508.403 111 508.273 111H505.727V117.545H503.545V111H501C500.635 111 500.295 111.182 500.092 111.486L497.183 115.849C497.064 116.029 497 116.239 497 116.455V121.545C497 122.148 497.488 122.636 498.091 122.636C498.693 122.636 499.182 122.148 499.182 121.545V117.545H501.364V132.818H501C500.397 132.818 499.909 133.306 499.909 133.909C499.909 134.511 500.397 135 501 135H502.455H506.818H508.273C508.875 135 509.364 134.511 509.364 133.909C509.364 133.306 508.875 132.818 508.273 132.818H507.909V117.545H516.636V122.097C515.367 122.547 514.454 123.76 514.454 125.182C514.454 126.986 515.923 128.454 517.727 128.454C519.532 128.454 521 126.986 521 125.182C521 124.579 520.511 124.091 519.909 124.091Z" fill="black"/>
</g>
<g clip-path="url(#clip5_121_3)">
<path d="M602.909 320.091C602.307 320.091 601.818 320.579 601.818 321.182C601.818 321.783 601.329 322.273 600.727 322.273C600.126 322.273 599.636 321.783 599.636 321.182C599.636 320.58 600.126 320.091 600.727 320.091C601.33 320.091 601.818 319.603 601.818 319V313.545H602.909C603.436 313.545 603.888 313.168 603.982 312.649C604.077 312.13 603.786 311.618 603.292 311.433L591.656 307.069C591.533 307.024 591.403 307 591.273 307H588.727V313.545H586.545V307H584C583.635 307 583.295 307.182 583.092 307.486L580.183 311.849C580.064 312.029 580 312.239 580 312.455V317.545C580 318.148 580.488 318.636 581.091 318.636C581.693 318.636 582.182 318.148 582.182 317.545V313.545H584.364V328.818H584C583.397 328.818 582.909 329.306 582.909 329.909C582.909 330.511 583.397 331 584 331H585.455H589.818H591.273C591.875 331 592.364 330.511 592.364 329.909C592.364 329.306 591.875 328.818 591.273 328.818H590.909V313.545H599.636V318.097C598.367 318.547 597.454 319.76 597.454 321.182C597.454 322.986 598.923 324.454 600.727 324.454C602.532 324.454 604 322.986 604 321.182C604 320.579 603.511 320.091 602.909 320.091Z" fill="black"/>
</g>
<g clip-path="url(#clip6_121_3)">
<path d="M64.909 275.091C64.3065 275.091 63.8181 275.579 63.8181 276.182C63.8181 276.783 63.3286 277.273 62.7271 277.273C62.1256 277.273 61.6362 276.783 61.6362 276.182C61.6362 275.58 62.1256 275.091 62.7271 275.091C63.3296 275.091 63.8181 274.603 63.8181 274V268.545H64.909C65.4364 268.545 65.8883 268.168 65.9824 267.649C66.0765 267.13 65.7859 266.618 65.292 266.433L53.6557 262.069C53.5332 262.024 53.4035 262 53.2727 262H50.7272V268.545H48.5454V262H46C45.6352 262 45.2947 262.182 45.0923 262.486L42.1833 266.849C42.0637 267.029 42 267.239 42 267.455V272.545C42 273.148 42.4884 273.636 43.0909 273.636C43.6934 273.636 44.1818 273.148 44.1818 272.545V268.545H46.3636V283.818H46C45.3975 283.818 44.9091 284.306 44.9091 284.909C44.9091 285.511 45.3975 286 46 286H47.4545H51.8181H53.2727C53.8751 286 54.3636 285.511 54.3636 284.909C54.3636 284.306 53.8751 283.818 53.2727 283.818H52.909V268.545H61.6362V273.097C60.3666 273.547 59.4544 274.76 59.4544 276.182C59.4544 277.986 60.9225 279.454 62.7271 279.454C64.5317 279.454 65.9999 277.986 65.9999 276.182C65.9999 275.579 65.5114 275.091 64.909 275.091Z" fill="black"/>
</g>
<g clip-path="url(#clip7_121_3)">
<path d="M457.909 193.091C457.307 193.091 456.818 193.579 456.818 194.182C456.818 194.783 456.329 195.273 455.727 195.273C455.126 195.273 454.636 194.783 454.636 194.182C454.636 193.58 455.126 193.091 455.727 193.091C456.33 193.091 456.818 192.603 456.818 192V186.545H457.909C458.436 186.545 458.888 186.168 458.982 185.649C459.077 185.13 458.786 184.618 458.292 184.433L446.656 180.069C446.533 180.024 446.403 180 446.273 180H443.727V186.545H441.545V180H439C438.635 180 438.295 180.182 438.092 180.486L435.183 184.849C435.064 185.029 435 185.239 435 185.455V190.545C435 191.148 435.488 191.636 436.091 191.636C436.693 191.636 437.182 191.148 437.182 190.545V186.545H439.364V201.818H439C438.397 201.818 437.909 202.306 437.909 202.909C437.909 203.511 438.397 204 439 204H440.455H444.818H446.273C446.875 204 447.364 203.511 447.364 202.909C447.364 202.306 446.875 201.818 446.273 201.818H445.909V186.545H454.636V191.097C453.367 191.547 452.454 192.76 452.454 194.182C452.454 195.986 453.923 197.454 455.727 197.454C457.532 197.454 459 195.986 459 194.182C459 193.579 458.511 193.091 457.909 193.091Z" fill="black"/>
</g>
<defs>
<clipPath id="clip0_121_3">
<rect width="659" height="614" fill="white"/>
</clipPath>
<clipPath id="clip1_121_3">
<rect width="24" height="24" fill="white" transform="translate(195 278)"/>
</clipPath>
<clipPath id="clip2_121_3">
<rect width="24" height="24" fill="white" transform="translate(127 377)"/>
</clipPath>
<clipPath id="clip3_121_3">
<rect width="24" height="24" fill="white" transform="translate(192 153)"/>
</clipPath>
<clipPath id="clip4_121_3">
<rect width="24" height="24" fill="white" transform="translate(497 111)"/>
</clipPath>
<clipPath id="clip5_121_3">
<rect width="24" height="24" fill="white" transform="translate(580 307)"/>
</clipPath>
<clipPath id="clip6_121_3">
<rect width="24" height="24" fill="white" transform="translate(42 262)"/>
</clipPath>
<clipPath id="clip7_121_3">
<rect width="24" height="24" fill="white" transform="translate(435 180)"/>
</clipPath>
</defs>
</svg>
